<svg xmlns="http://www.w3.org/2000/svg" fill="none" viewBox="0 0 1024 1024"><path fill="#2A1F33" fill-rule="evenodd" d="M284.4 0h455.2c98.9 0 134.7 10.3 170.9 29.6a201.6 201.6 0 0 1 83.9 83.9c19.3 36.2 29.6 72 29.6 171v455c0 99-10.3 134.8-29.6 171a201.6 201.6 0 0 1-83.9 83.9c-36.2 19.3-72 29.6-171 29.6h-455c-99 0-134.8-10.3-171-29.6a201.6 201.6 0 0 1-83.9-83.9C10.3 874.3 0 838.5 0 739.5v-455c0-99 10.3-134.8 29.6-171a201.6 201.6 0 0 1 83.9-83.9c36.2-19.3 72-29.6 171-29.6Z" clip-rule="evenodd"/><path fill="#9B5AE3" fill-rule="evenodd" d="M540.8 173v101.6a219.2 219.2 0 0 1 124 54.2l-34.6 35.9a158 158 0 0 0-89.4-42.7v153.8c67.7 22.3 130 60.2 130 143.6 0 64.3-44 121.2-130 132.7V851h-46v-96.9a219.7 219.7 0 0 1-141.6-63l33.8-37.9c28.5 28.5 63 49.5 107.7 52.9V519c-79.2-26.4-124-66.4-124-129.4 0-54.1 40.7-107 124-115.1V173h46Zm-46 150.4c-36.6 6-63.7 27-63.7 65.7 0 31.8 14.2 52.1 63.6 71.8V323.4Zm46 211.3v168.6c44.7-8.8 68.4-36.5 68.4-83.3 0-37.9-17.6-63.6-68.4-85.3Z" clip-rule="evenodd"/></svg>
